<svg xmlns="http://www.w3.org/2000/svg" width="512" height="512" viewBox="0 0 512 512" version="1.1"><path d="" stroke="none" fill="#080404" fill-rule="evenodd"/><path d="M 108.370 1.521 L 108.953 3.042 126.205 54.771 L 143.457 106.500 143.978 145 L 144.500 183.500 160.250 183.775 L 176 184.051 176 145.265 L 176 106.479 193.500 54 L 211 1.521 211 0.761 L 211 0 195.248 0 L 179.496 0 176.365 12.250 L 173.234 24.500 166.973 48.750 L 160.712 73 160.064 73 L 159.417 73 149.534 36.500 L 139.651 -0 123.719 -0 L 107.786 0 108.370 1.521 M 244.500 44.973 L 239.500 45.812 235.239 47.365 L 230.978 48.919 226.432 52.047 L 221.886 55.174 218.917 59.273 L 215.948 63.372 214.424 68.612 L 212.901 73.852 213.200 117.176 L 213.500 160.500 216.394 166.394 L 219.288 172.288 223.243 176.243 L 227.197 180.197 233.849 183.349 L 240.500 186.500 253 186.500 L 265.500 186.500 271.336 183.766 L 277.172 181.032 280.922 178.062 L 284.673 175.091 287.845 169.139 L 291.018 163.187 292.076 155.325 L 293.134 147.463 292.748 109.981 L 292.362 72.500 291.154 68.823 L 289.946 65.145 286.723 60.356 L 283.500 55.567 279.282 52.367 L 275.065 49.168 269.630 47.134 L 264.195 45.101 256.848 44.618 L 249.500 44.135 244.500 44.973 M 314 107.841 L 314 167.682 315.446 172.488 L 316.893 177.294 320.108 180.612 L 323.323 183.929 328.457 185.078 L 333.591 186.227 339.183 185.066 L 344.776 183.905 350.638 180.390 L 356.500 176.875 360.250 173.234 L 364 169.594 364 176.797 L 364 184 378 184 L 392 184 392 116 L 392 48 378.009 48 L 364.018 48 363.759 100.135 L 363.500 152.270 357.947 156.196 L 352.394 160.123 349.033 160.218 L 345.672 160.314 343.836 158.046 L 342 155.778 342 101.889 L 342 48 328 48 L 314 48 314 107.841 M 244.646 71.452 L 242 73.905 242 115.396 L 242 156.888 244.413 159.694 L 246.827 162.500 252.495 162.500 L 258.164 162.500 261.082 159.234 L 264 155.968 264 115.407 L 264 74.846 261.077 71.923 L 258.154 69 252.723 69 L 247.292 69 244.646 71.452 M 190.500 236.081 L 172.500 236.856 157 237.967 L 141.500 239.078 127.500 240.562 L 113.500 242.046 104.006 243.564 L 94.512 245.082 86.633 247.094 L 78.754 249.105 74.371 251.166 L 69.988 253.226 67.336 256.363 L 64.685 259.500 62.448 264.540 L 60.211 269.579 57.619 280.040 L 55.026 290.500 53.573 300.500 L 52.119 310.500 50.810 323 L 49.500 335.500 49.500 373 L 49.500 410.500 50.831 424 L 52.162 437.500 54.544 451.711 L 56.926 465.922 60.023 475.211 L 63.120 484.500 65.855 488.500 L 68.590 492.500 72.599 494.717 L 76.608 496.934 86.054 499.469 L 95.500 502.003 109 503.950 L 122.500 505.897 140 507.425 L 157.500 508.953 174.500 510.033 L 191.500 511.114 237.500 511.683 L 283.500 512.251 311.500 511.103 L 339.500 509.956 353.500 508.973 L 367.500 507.990 382.371 506.434 L 397.243 504.878 408.371 503.059 L 419.500 501.240 427.710 499.021 L 435.920 496.803 440.232 494.068 L 444.544 491.333 447.761 485.298 L 450.978 479.262 453.463 469.881 L 455.948 460.500 457.930 448 L 459.911 435.500 461.206 423 L 462.500 410.500 462.481 373 L 462.462 335.500 460.611 318.500 L 458.760 301.500 455.998 288 L 453.236 274.500 451.121 268.951 L 449.007 263.402 446.052 258.742 L 443.096 254.083 438.039 251.520 L 432.982 248.957 422.741 246.509 L 412.500 244.062 397.500 242.084 L 382.500 240.106 362 238.557 L 341.500 237.008 318 236.006 L 294.500 235.005 251.500 235.155 L 208.500 235.306 190.500 236.081 M 93 300.500 L 93 312 107 312 L 121 312 121 383.500 L 121 455 134.500 455 L 148 455 148 383.500 L 148 312 162 312 L 176 312 176 300.500 L 176 289 134.500 289 L 93 289 93 300.500 M 275 372 L 275 455 286.500 455 L 298 455 298 450.500 L 298 446 298.845 446 L 299.690 446 301.594 448.104 L 303.498 450.207 307.999 452.854 L 312.500 455.500 321.069 455.500 L 329.638 455.500 333.698 452.816 L 337.758 450.132 340.129 445.316 L 342.500 440.500 342.500 394.500 L 342.500 348.500 340.145 343.762 L 337.791 339.023 334.409 336.054 L 331.026 333.084 326.763 331.934 L 322.500 330.784 317.648 331.357 L 312.795 331.930 308.648 334.370 L 304.500 336.810 302.076 339.405 L 299.651 342 298.826 342 L 298 342 298 315.500 L 298 289 286.500 289 L 275 289 275 372 M 379.205 331.894 L 373.910 333.723 370.205 336.705 L 366.500 339.688 363.276 343.888 L 360.051 348.088 358.526 353.226 L 357 358.363 357 393.500 L 357 428.637 358.588 434.068 L 360.177 439.500 363.119 444.135 L 366.061 448.770 369.781 451.339 L 373.500 453.907 377.500 455.658 L 381.500 457.408 391.500 457.454 L 401.500 457.500 406.609 455.716 L 411.719 453.933 415.899 450.354 L 420.080 446.776 422.451 442.098 L 424.821 437.420 425.911 431.526 L 427 425.633 427 420.316 L 427 415 415 415 L 403 415 402.976 420.250 L 402.952 425.500 402.025 429.500 L 401.099 433.500 398.939 435.250 L 396.778 437 392.112 437 L 387.445 437 385.261 435.471 L 383.078 433.941 382.044 430.221 L 381.011 426.500 381.006 411.250 L 381 396 404.099 396 L 427.199 396 426.849 374.727 L 426.500 353.454 423.205 346.763 L 419.910 340.071 416.205 337.015 L 412.500 333.959 407.212 331.980 L 401.925 330 393.212 330.033 L 384.500 330.065 379.205 331.894 M 187.188 387.750 L 187.500 442.500 189.682 447.223 L 191.864 451.947 195.182 453.970 L 198.500 455.993 204.648 455.996 L 210.797 456 216.648 452.939 L 222.500 449.879 227.250 445.227 L 232 440.575 232 447.788 L 232 455 244 455 L 256 455 256 394 L 256 333 244 333 L 232 333 232 379.492 L 232 425.985 228.946 428.742 L 225.893 431.500 222.712 433.250 L 219.531 435 216.822 435 L 214.113 435 212.557 432.777 L 211 430.555 211 381.777 L 211 333 198.938 333 L 186.877 333 187.188 387.750 M 301.898 352.290 L 298.500 354.579 298.238 393.230 L 297.977 431.880 301.272 434.394 L 304.567 436.907 308.740 437.574 L 312.912 438.242 315.956 435.198 L 319 432.154 319 395.027 L 319 357.901 317.490 354.980 L 315.979 352.059 314.055 351.030 L 312.131 350 308.714 350 L 305.296 350 301.898 352.290 M 387.500 350.894 L 385.500 351.764 383.500 353.984 L 381.500 356.204 381.162 367.102 L 380.823 378 391.912 378 L 403 378 402.994 369.750 L 402.989 361.500 401.989 357.900 L 400.989 354.300 399.072 352.565 L 397.155 350.831 393.328 350.427 L 389.500 350.024 387.500 350.894" stroke="none" fill="#040404" fill-rule="evenodd"/></svg>